<?xml version="1.0" encoding="utf-8"?>
<!-- Generator: Adobe Illustrator 22.1.0, SVG Export Plug-In . SVG Version: 6.00 Build 0)  -->
<svg version="1.1" id="Layer_1" xmlns="http://www.w3.org/2000/svg" xmlns:xlink="http://www.w3.org/1999/xlink" x="0px" y="0px"
	 viewBox="0 0 328.9 94.6" style="enable-background:new 0 0 328.9 94.6;" xml:space="preserve">
<g>
	<path d="M2.7,68.6h0.2c0.3-1,0.8-2,1.6-3c0.8-0.9,1.7-1.7,2.8-2.4c1.1-0.7,2.4-1.2,3.7-1.5c1.4-0.4,2.8-0.5,4.3-0.5v2.4
		c-1.3-0.2-2.7,0-4.3,0.4c-1.6,0.4-3.2,1.3-4.6,2.8c-0.6,0.6-1.1,1.2-1.5,1.8c-0.4,0.6-0.8,1.2-1.1,2c-0.3,0.7-0.5,1.5-0.7,2.4
		c-0.2,0.9-0.3,1.9-0.3,3.2v17.7H0.4V61.4h2.4V68.6z"/>
	<path d="M18,77.9v0.4c0,1.9,0.3,3.7,0.8,5.4c0.5,1.7,1.3,3.2,2.2,4.5c1,1.3,2.2,2.3,3.7,3.1c1.5,0.8,3.2,1.1,5.2,1.1
		c3.2,0,5.8-0.9,7.7-2.6c1.9-1.7,3.2-4.1,3.9-7.1h2.4c-0.7,3.8-2.3,6.7-4.6,8.7c-2.4,2-5.5,3-9.4,3c-2.4,0-4.5-0.4-6.3-1.3
		c-1.8-0.9-3.3-2-4.5-3.5c-1.2-1.5-2.1-3.3-2.7-5.3c-0.6-2-0.9-4.2-0.9-6.6c0-2.3,0.3-4.4,0.9-6.5c0.6-2.1,1.5-3.9,2.7-5.5
		c1.2-1.6,2.7-2.8,4.6-3.8c1.8-0.9,4-1.4,6.5-1.4c2.3,0,4.3,0.4,6,1.3c1.7,0.8,3.2,2,4.4,3.4c1.2,1.4,2.1,3.1,2.7,5
		c0.6,1.9,0.9,4,0.9,6.1c0,0.2,0,0.5,0,0.7c0,0.3,0,0.5,0,0.7H18z M41.8,75.8c-0.1-1.8-0.4-3.4-0.9-5c-0.5-1.6-1.3-3-2.2-4.2
		c-1-1.2-2.2-2.2-3.6-2.9c-1.4-0.7-3-1.1-4.8-1.1c-1.9,0-3.6,0.4-5.1,1.1c-1.5,0.7-2.7,1.7-3.7,2.9c-1,1.2-1.8,2.6-2.3,4.2
		c-0.5,1.6-0.9,3.2-1,4.9H41.8z"/>
	<path d="M78.3,72.1c-0.3-2-1.1-3.5-2.4-4.6c-1.3-1-3-1.5-5-1.5c-0.9,0-1.9,0.2-3,0.5c-1.1,0.3-2,0.9-2.9,1.8
		c-0.9,0.9-1.6,2.1-2.2,3.6c-0.6,1.5-0.9,3.5-0.9,6c0,1.3,0.2,2.7,0.5,4c0.3,1.3,0.8,2.5,1.5,3.6c0.7,1.1,1.6,1.9,2.7,2.6
		c1.1,0.7,2.4,1,4,1c2.1,0,3.8-0.7,5.2-2c1.4-1.3,2.2-3.1,2.6-5.5h7.2c-0.7,4.2-2.3,7.5-4.8,9.7c-2.5,2.2-5.9,3.4-10.1,3.4
		c-2.6,0-4.8-0.4-6.8-1.3s-3.6-2-4.9-3.5c-1.3-1.5-2.4-3.3-3.1-5.3c-0.7-2.1-1-4.3-1-6.7c0-2.4,0.3-4.7,1-6.9c0.7-2.1,1.7-4,3-5.6
		c1.3-1.6,3-2.8,5-3.7c2-0.9,4.3-1.4,7-1.4c1.9,0,3.7,0.2,5.4,0.7c1.7,0.5,3.2,1.2,4.5,2.2c1.3,1,2.4,2.2,3.2,3.7
		c0.8,1.5,1.3,3.2,1.5,5.2H78.3z"/>
	<path d="M106.6,94.6c-2.6,0-4.9-0.4-7-1.3s-3.8-2-5.2-3.6c-1.4-1.5-2.5-3.3-3.2-5.4c-0.7-2.1-1.1-4.4-1.1-6.9
		c0-2.5,0.4-4.8,1.1-6.9c0.7-2.1,1.8-3.9,3.2-5.4c1.4-1.5,3.1-2.7,5.2-3.6c2-0.9,4.4-1.3,7-1.3c2.6,0,4.9,0.4,7,1.3
		c2,0.9,3.8,2,5.2,3.6c1.4,1.5,2.5,3.3,3.2,5.4c0.7,2.1,1.1,4.4,1.1,6.9c0,2.5-0.4,4.8-1.1,6.9c-0.7,2.1-1.8,3.9-3.2,5.4
		c-1.4,1.5-3.1,2.7-5.2,3.6C111.6,94.2,109.2,94.6,106.6,94.6z M106.6,89c1.6,0,3-0.3,4.2-1c1.2-0.7,2.1-1.6,2.9-2.6
		c0.8-1.1,1.3-2.3,1.7-3.7c0.4-1.4,0.5-2.8,0.5-4.2c0-1.4-0.2-2.8-0.5-4.2c-0.4-1.4-0.9-2.6-1.7-3.7c-0.8-1.1-1.7-1.9-2.9-2.6
		c-1.2-0.7-2.6-1-4.2-1c-1.6,0-3,0.3-4.2,1c-1.2,0.7-2.1,1.5-2.9,2.6c-0.8,1.1-1.3,2.3-1.7,3.7c-0.4,1.4-0.5,2.8-0.5,4.2
		c0,1.4,0.2,2.8,0.5,4.2c0.4,1.4,0.9,2.6,1.7,3.7c0.8,1.1,1.7,2,2.9,2.6S105,89,106.6,89z"/>
	<path d="M129.4,61.2h6.8V66l0.1,0.1c1.1-1.8,2.5-3.2,4.3-4.3c1.8-1,3.7-1.5,5.9-1.5c3.6,0,6.4,0.9,8.4,2.8c2.1,1.8,3.1,4.6,3.1,8.3
		v22.4h-7.2V73.3c-0.1-2.6-0.6-4.4-1.6-5.6c-1-1.2-2.6-1.7-4.7-1.7c-1.2,0-2.3,0.2-3.3,0.7c-1,0.4-1.8,1-2.5,1.8
		c-0.7,0.8-1.2,1.7-1.6,2.7c-0.4,1.1-0.6,2.2-0.6,3.3v19.2h-7.2V61.2z"/>
	<path d="M162.6,61.2h5.4v-9.8h7.2v9.8h6.5v5.4h-6.5v17.4c0,0.8,0,1.4,0.1,2c0.1,0.5,0.2,1,0.4,1.4c0.2,0.4,0.6,0.7,1,0.9
		c0.5,0.2,1.1,0.3,1.9,0.3c0.5,0,1,0,1.5,0c0.5,0,1-0.1,1.5-0.2v5.5c-0.8,0.1-1.6,0.2-2.3,0.3c-0.8,0.1-1.5,0.1-2.3,0.1
		c-1.9,0-3.4-0.2-4.6-0.5s-2.1-0.9-2.7-1.6c-0.7-0.7-1.1-1.6-1.3-2.6c-0.2-1-0.4-2.2-0.4-3.6V66.5h-5.4V61.2z"/>
	<path d="M214.4,86.5c0,0.9,0.1,1.5,0.3,1.9c0.2,0.4,0.7,0.6,1.4,0.6c0.2,0,0.5,0,0.8,0s0.6,0,1-0.1v5c-0.3,0.1-0.6,0.2-1,0.3
		c-0.4,0.1-0.8,0.2-1.2,0.3c-0.4,0.1-0.8,0.1-1.3,0.2c-0.4,0-0.8,0.1-1.1,0.1c-1.5,0-2.7-0.3-3.7-0.9c-1-0.6-1.6-1.6-1.9-3.1
		c-1.4,1.4-3.2,2.4-5.3,3c-2.1,0.6-4.1,0.9-6,0.9c-1.5,0-2.9-0.2-4.2-0.6c-1.3-0.4-2.5-1-3.6-1.8c-1-0.8-1.8-1.8-2.5-3
		c-0.6-1.2-0.9-2.6-0.9-4.2c0-2,0.4-3.7,1.1-4.9c0.7-1.3,1.7-2.2,2.9-3c1.2-0.7,2.5-1.2,4-1.5c1.5-0.3,3-0.6,4.5-0.7
		c1.3-0.3,2.5-0.4,3.7-0.5c1.2-0.1,2.2-0.3,3.1-0.5c0.9-0.3,1.6-0.6,2.1-1.2c0.5-0.5,0.8-1.3,0.8-2.4c0-0.9-0.2-1.7-0.7-2.3
		c-0.4-0.6-1-1-1.6-1.4c-0.7-0.3-1.4-0.5-2.2-0.6s-1.6-0.2-2.3-0.2c-2,0-3.7,0.4-5,1.3c-1.3,0.8-2,2.1-2.2,3.9h-7.2
		c0.1-2.1,0.6-3.8,1.5-5.2c0.9-1.4,2-2.5,3.4-3.3c1.4-0.8,2.9-1.4,4.6-1.8c1.7-0.3,3.5-0.5,5.3-0.5c1.6,0,3.2,0.2,4.7,0.5
		c1.6,0.3,3,0.9,4.2,1.6c1.2,0.8,2.2,1.7,3,2.9c0.8,1.2,1.1,2.7,1.1,4.4V86.5z M207.2,77.4c-1.1,0.7-2.4,1.1-4,1.3
		c-1.6,0.1-3.2,0.4-4.8,0.7c-0.8,0.1-1.5,0.3-2.2,0.5s-1.3,0.5-1.9,0.9c-0.5,0.4-1,0.9-1.3,1.6c-0.3,0.7-0.5,1.4-0.5,2.4
		c0,0.8,0.2,1.5,0.7,2s1,1,1.7,1.3c0.7,0.3,1.4,0.5,2.1,0.7s1.5,0.2,2.1,0.2c0.8,0,1.7-0.1,2.6-0.3c0.9-0.2,1.8-0.6,2.6-1.1
		c0.8-0.5,1.5-1.1,2-1.9c0.5-0.8,0.8-1.7,0.8-2.9V77.4z"/>
	<path d="M222.7,48.8h7.2v6.8h-7.2V48.8z M222.7,61.2h7.2v32.6h-7.2V61.2z"/>
	<path d="M238,61.2h6.8V66l0.1,0.1c1.1-1.8,2.5-3.2,4.3-4.3c1.8-1,3.7-1.5,5.9-1.5c3.6,0,6.4,0.9,8.4,2.8c2.1,1.8,3.1,4.6,3.1,8.3
		v22.4h-7.2V73.3c-0.1-2.6-0.6-4.4-1.6-5.6c-1-1.2-2.6-1.7-4.7-1.7c-1.2,0-2.3,0.2-3.3,0.7c-1,0.4-1.8,1-2.5,1.8
		c-0.7,0.8-1.2,1.7-1.6,2.7c-0.4,1.1-0.6,2.2-0.6,3.3v19.2H238V61.2z"/>
	<path d="M280.1,79.3c0,1.3,0.2,2.5,0.5,3.7c0.4,1.2,0.9,2.2,1.6,3.1c0.7,0.9,1.6,1.6,2.7,2.1c1.1,0.5,2.4,0.8,3.9,0.8
		c2.1,0,3.8-0.5,5.1-1.4c1.3-0.9,2.2-2.3,2.9-4.1h6.8c-0.4,1.8-1,3.3-2,4.7c-0.9,1.4-2,2.6-3.3,3.5s-2.8,1.7-4.4,2.1
		c-1.6,0.5-3.3,0.7-5.1,0.7c-2.6,0-4.8-0.4-6.8-1.3c-2-0.8-3.6-2-5-3.5c-1.4-1.5-2.4-3.3-3.1-5.4c-0.7-2.1-1-4.4-1-6.9
		c0-2.3,0.4-4.5,1.1-6.6c0.7-2.1,1.8-3.9,3.1-5.5c1.4-1.6,3-2.8,4.9-3.7c1.9-0.9,4.1-1.4,6.6-1.4c2.6,0,4.9,0.5,6.9,1.6
		c2,1.1,3.7,2.5,5.1,4.3c1.3,1.8,2.3,3.8,2.9,6.1c0.6,2.3,0.8,4.7,0.5,7.1H280.1z M296.8,74.6c-0.1-1.1-0.3-2.2-0.7-3.3
		c-0.4-1-0.9-2-1.6-2.7c-0.7-0.8-1.5-1.4-2.5-1.9c-1-0.5-2.1-0.7-3.3-0.7c-1.3,0-2.4,0.2-3.4,0.7c-1,0.4-1.9,1-2.6,1.8
		c-0.7,0.8-1.3,1.7-1.8,2.7c-0.4,1.1-0.7,2.2-0.7,3.4H296.8z"/>
	<path d="M309.8,61.2h6.7v6.3h0.1c0.2-0.9,0.6-1.7,1.2-2.6c0.6-0.8,1.3-1.6,2.2-2.3c0.9-0.7,1.8-1.2,2.9-1.7c1-0.4,2.1-0.6,3.2-0.6
		c0.8,0,1.4,0,1.7,0.1c0.3,0,0.6,0.1,1,0.1v6.9c-0.5-0.1-1-0.2-1.5-0.2s-1-0.1-1.5-0.1c-1.2,0-2.4,0.2-3.4,0.7s-2,1.2-2.8,2.1
		c-0.8,0.9-1.4,2.1-1.9,3.5c-0.5,1.4-0.7,3-0.7,4.8v15.5h-7.2V61.2z"/>
</g>
<path d="M42.1,21.1V8.2H28.9c0,0,0-0.1,0-0.1c0-4.4-3.6-8-8-8s-8,3.6-8,8c0,0,0,0.1,0,0.1H0v12.9c4.4,0.1,7.9,3.6,7.9,8
	s-3.5,8-7.9,8v13.2h12.9c0.1-4.4,3.6-7.9,8-7.9s8,3.5,8,7.9h13.2V37.1c4.4-0.1,7.9-3.6,7.9-8S46.5,21.1,42.1,21.1z"/>
</svg>
