<?xml version="1.0" encoding="utf-8"?>
<!-- Generator: Adobe Illustrator 22.1.0, SVG Export Plug-In . SVG Version: 6.00 Build 0)  -->
<svg version="1.1" id="Layer_1" xmlns="http://www.w3.org/2000/svg" xmlns:xlink="http://www.w3.org/1999/xlink" x="0px" y="0px"
	 viewBox="0 0 295.5 88.2" style="enable-background:new 0 0 295.5 88.2;" xml:space="preserve">
<path d="M38.2,18.9V7.4H26.4c0,0,0-0.1,0-0.1c0-4-3.2-7.2-7.2-7.2s-7.2,3.2-7.2,7.2c0,0,0,0.1,0,0.1H0.3v11.6
	c3.9,0.1,7.1,3.3,7.1,7.2s-3.2,7.2-7.1,7.2v11.8h11.6c0.1-3.9,3.3-7.1,7.2-7.1s7.2,3.2,7.2,7.1h11.8V33.4c3.9-0.1,7.1-3.3,7.1-7.2
	S42.2,19,38.2,18.9z"/>
<g>
	<path d="M0,58.5h6v5.6h0.1c0.2-0.8,0.6-1.5,1.1-2.3c0.5-0.7,1.2-1.4,2-2c0.8-0.6,1.6-1.1,2.5-1.5c0.9-0.4,1.9-0.6,2.9-0.6
		c0.7,0,1.3,0,1.5,0.1c0.3,0,0.6,0.1,0.9,0.1V64c-0.4-0.1-0.9-0.1-1.4-0.2c-0.5-0.1-0.9-0.1-1.4-0.1c-1.1,0-2.1,0.2-3.1,0.6
		c-1,0.4-1.8,1.1-2.5,1.9C8,67.1,7.4,68.1,7,69.4c-0.4,1.2-0.6,2.7-0.6,4.3v13.8H0V58.5z"/>
	<path d="M24.2,74.6c0,1.1,0.2,2.2,0.5,3.2c0.3,1,0.8,2,1.4,2.7c0.6,0.8,1.4,1.4,2.4,1.9c1,0.5,2.1,0.7,3.5,0.7
		c1.9,0,3.4-0.4,4.5-1.2c1.1-0.8,2-2,2.5-3.6h6c-0.3,1.6-0.9,3-1.7,4.2c-0.8,1.2-1.8,2.3-3,3.1c-1.2,0.8-2.5,1.5-3.9,1.9
		c-1.4,0.4-2.9,0.6-4.5,0.6c-2.3,0-4.3-0.4-6-1.1c-1.8-0.7-3.2-1.8-4.5-3.1c-1.2-1.3-2.1-2.9-2.7-4.8c-0.6-1.9-0.9-3.9-0.9-6.2
		c0-2.1,0.3-4,1-5.9c0.7-1.8,1.6-3.5,2.8-4.9c1.2-1.4,2.7-2.5,4.4-3.3c1.7-0.8,3.7-1.2,5.8-1.2c2.3,0,4.3,0.5,6.1,1.4
		c1.8,1,3.3,2.2,4.5,3.8c1.2,1.6,2.1,3.4,2.6,5.4c0.5,2,0.7,4.1,0.4,6.3H24.2z M39.1,70.4c-0.1-1-0.3-2-0.6-2.9
		c-0.4-0.9-0.8-1.7-1.5-2.4c-0.6-0.7-1.4-1.2-2.2-1.7c-0.9-0.4-1.9-0.6-2.9-0.6c-1.1,0-2.1,0.2-3.1,0.6c-0.9,0.4-1.7,0.9-2.4,1.6
		c-0.7,0.7-1.2,1.5-1.6,2.4c-0.4,0.9-0.6,1.9-0.6,3H39.1z"/>
	<path d="M70.5,68.1c-0.3-1.8-1-3.1-2.2-4.1c-1.2-0.9-2.7-1.4-4.5-1.4c-0.8,0-1.7,0.1-2.6,0.4c-0.9,0.3-1.8,0.8-2.6,1.6
		c-0.8,0.8-1.4,1.8-2,3.2c-0.5,1.4-0.8,3.1-0.8,5.3c0,1.2,0.1,2.4,0.4,3.6c0.3,1.2,0.7,2.3,1.3,3.2c0.6,0.9,1.4,1.7,2.4,2.3
		c1,0.6,2.1,0.9,3.5,0.9c1.9,0,3.4-0.6,4.6-1.7c1.2-1.2,2-2.8,2.3-4.9h6.4c-0.6,3.8-2,6.7-4.3,8.7c-2.3,2-5.3,3-9,3
		c-2.3,0-4.3-0.4-6-1.1c-1.7-0.8-3.2-1.8-4.4-3.1c-1.2-1.3-2.1-2.9-2.7-4.7c-0.6-1.8-0.9-3.8-0.9-5.9c0-2.2,0.3-4.2,0.9-6.1
		c0.6-1.9,1.5-3.6,2.7-5c1.2-1.4,2.7-2.5,4.5-3.3c1.8-0.8,3.9-1.2,6.2-1.2c1.7,0,3.3,0.2,4.8,0.6c1.5,0.4,2.9,1.1,4,1.9
		c1.2,0.9,2.1,1.9,2.9,3.2c0.7,1.3,1.2,2.9,1.3,4.6H70.5z"/>
	<path d="M95.9,88.2c-2.3,0-4.4-0.4-6.2-1.1c-1.8-0.8-3.3-1.8-4.6-3.2c-1.3-1.3-2.2-2.9-2.9-4.8c-0.7-1.9-1-3.9-1-6.2
		c0-2.2,0.3-4.2,1-6.1c0.7-1.9,1.6-3.5,2.9-4.8s2.8-2.4,4.6-3.2c1.8-0.8,3.9-1.1,6.2-1.1c2.3,0,4.4,0.4,6.2,1.1
		c1.8,0.8,3.3,1.8,4.6,3.2c1.2,1.3,2.2,2.9,2.9,4.8c0.7,1.9,1,3.9,1,6.1c0,2.2-0.3,4.3-1,6.2c-0.7,1.9-1.6,3.5-2.9,4.8
		c-1.3,1.3-2.8,2.4-4.6,3.2C100.3,87.8,98.2,88.2,95.9,88.2z M95.9,83.1c1.4,0,2.7-0.3,3.7-0.9c1-0.6,1.9-1.4,2.6-2.4
		s1.2-2.1,1.5-3.3c0.3-1.2,0.5-2.5,0.5-3.7c0-1.2-0.2-2.5-0.5-3.7c-0.3-1.2-0.8-2.3-1.5-3.3c-0.7-1-1.5-1.7-2.6-2.3
		c-1-0.6-2.3-0.9-3.7-0.9s-2.7,0.3-3.7,0.9c-1,0.6-1.9,1.4-2.6,2.3c-0.7,1-1.2,2-1.5,3.3c-0.3,1.2-0.5,2.5-0.5,3.7
		c0,1.3,0.2,2.5,0.5,3.7c0.3,1.2,0.8,2.3,1.5,3.3s1.5,1.8,2.6,2.4C93.3,82.8,94.5,83.1,95.9,83.1z"/>
	<path d="M116.4,58.5h6v4.3l0.1,0.1c1-1.6,2.2-2.9,3.8-3.8c1.6-0.9,3.3-1.4,5.2-1.4c3.2,0,5.7,0.8,7.5,2.5c1.8,1.6,2.7,4.1,2.7,7.4
		v19.9h-6.4V69.2c-0.1-2.3-0.6-3.9-1.5-5c-0.9-1-2.3-1.5-4.2-1.5c-1.1,0-2.1,0.2-2.9,0.6c-0.9,0.4-1.6,0.9-2.2,1.6
		c-0.6,0.7-1.1,1.5-1.4,2.4c-0.3,0.9-0.5,1.9-0.5,3v17.1h-6.4V58.5z"/>
	<path d="M146.2,58.5h4.8v-8.7h6.4v8.7h5.8v4.8h-5.8v15.5c0,0.7,0,1.3,0.1,1.7c0.1,0.5,0.2,0.9,0.4,1.2c0.2,0.3,0.5,0.6,0.9,0.8
		c0.4,0.2,1,0.3,1.7,0.3c0.4,0,0.9,0,1.3,0c0.4,0,0.9-0.1,1.3-0.2v4.9c-0.7,0.1-1.4,0.1-2.1,0.2c-0.7,0.1-1.4,0.1-2.1,0.1
		c-1.7,0-3-0.2-4.1-0.5c-1-0.3-1.8-0.8-2.4-1.4c-0.6-0.6-1-1.4-1.2-2.3c-0.2-0.9-0.3-2-0.4-3.2V63.2h-4.8V58.5z"/>
	<path d="M192.6,81c0,0.8,0.1,1.3,0.3,1.7c0.2,0.3,0.6,0.5,1.2,0.5c0.2,0,0.4,0,0.7,0c0.3,0,0.6,0,0.9-0.1v4.4
		c-0.2,0.1-0.5,0.2-0.9,0.3c-0.4,0.1-0.7,0.2-1.1,0.3s-0.7,0.1-1.1,0.2c-0.4,0-0.7,0.1-1,0.1c-1.3,0-2.4-0.3-3.2-0.8
		c-0.9-0.5-1.4-1.4-1.7-2.7c-1.3,1.2-2.8,2.1-4.7,2.7c-1.8,0.6-3.6,0.8-5.3,0.8c-1.3,0-2.6-0.2-3.8-0.5c-1.2-0.4-2.2-0.9-3.2-1.6
		c-0.9-0.7-1.6-1.6-2.2-2.6c-0.5-1.1-0.8-2.3-0.8-3.7c0-1.8,0.3-3.2,1-4.4c0.7-1.1,1.5-2,2.6-2.6c1.1-0.6,2.3-1.1,3.6-1.4
		s2.7-0.5,4-0.6c1.2-0.2,2.3-0.4,3.3-0.5c1-0.1,2-0.3,2.8-0.5c0.8-0.2,1.4-0.6,1.9-1s0.7-1.2,0.7-2.1c0-0.8-0.2-1.5-0.6-2
		c-0.4-0.5-0.9-0.9-1.5-1.2c-0.6-0.3-1.2-0.5-1.9-0.6c-0.7-0.1-1.4-0.1-2-0.1c-1.8,0-3.3,0.4-4.4,1.1c-1.2,0.7-1.8,1.9-2,3.5h-6.4
		c0.1-1.9,0.6-3.4,1.3-4.6s1.8-2.2,3-3c1.2-0.7,2.6-1.3,4.1-1.6c1.5-0.3,3.1-0.4,4.7-0.4c1.4,0,2.8,0.2,4.2,0.4
		c1.4,0.3,2.6,0.8,3.7,1.5c1.1,0.7,2,1.5,2.7,2.6c0.7,1.1,1,2.4,1,3.9V81z M186.2,72.9c-1,0.6-2.2,1-3.6,1.1
		c-1.4,0.1-2.8,0.3-4.3,0.6c-0.7,0.1-1.3,0.3-2,0.5c-0.6,0.2-1.2,0.5-1.7,0.8c-0.5,0.4-0.9,0.8-1.1,1.4c-0.3,0.6-0.4,1.3-0.4,2.1
		c0,0.7,0.2,1.3,0.6,1.8c0.4,0.5,0.9,0.9,1.5,1.1c0.6,0.3,1.2,0.5,1.9,0.6c0.7,0.1,1.3,0.2,1.9,0.2c0.7,0,1.5-0.1,2.3-0.3
		c0.8-0.2,1.6-0.5,2.3-1c0.7-0.4,1.3-1,1.8-1.7c0.5-0.7,0.7-1.5,0.7-2.5V72.9z"/>
	<path d="M200.2,47.4h6.4v6h-6.4V47.4z M200.2,58.5h6.4v29h-6.4V58.5z"/>
	<path d="M214.1,58.5h6v4.3l0.1,0.1c1-1.6,2.2-2.9,3.8-3.8c1.6-0.9,3.3-1.4,5.2-1.4c3.2,0,5.7,0.8,7.5,2.5c1.8,1.6,2.7,4.1,2.7,7.4
		v19.9h-6.4V69.2c-0.1-2.3-0.6-3.9-1.5-5c-0.9-1-2.3-1.5-4.2-1.5c-1.1,0-2.1,0.2-2.9,0.6c-0.9,0.4-1.6,0.9-2.2,1.6
		c-0.6,0.7-1.1,1.5-1.4,2.4c-0.3,0.9-0.5,1.9-0.5,3v17.1h-6.4V58.5z"/>
	<path d="M251.8,74.6c0,1.1,0.2,2.2,0.5,3.2c0.3,1,0.8,2,1.4,2.7c0.6,0.8,1.4,1.4,2.4,1.9c1,0.5,2.1,0.7,3.5,0.7
		c1.9,0,3.4-0.4,4.5-1.2s2-2,2.5-3.6h6c-0.3,1.6-0.9,3-1.7,4.2c-0.8,1.2-1.8,2.3-3,3.1c-1.2,0.8-2.5,1.5-3.9,1.9
		c-1.4,0.4-2.9,0.6-4.5,0.6c-2.3,0-4.3-0.4-6-1.1c-1.8-0.7-3.2-1.8-4.5-3.1c-1.2-1.3-2.1-2.9-2.7-4.8c-0.6-1.9-0.9-3.9-0.9-6.2
		c0-2.1,0.3-4,1-5.9c0.7-1.8,1.6-3.5,2.8-4.9c1.2-1.4,2.7-2.5,4.4-3.3c1.7-0.8,3.7-1.2,5.8-1.2c2.3,0,4.3,0.5,6.1,1.4
		c1.8,1,3.3,2.2,4.5,3.8c1.2,1.6,2.1,3.4,2.6,5.4c0.5,2,0.7,4.1,0.4,6.3H251.8z M266.7,70.4c-0.1-1-0.3-2-0.6-2.9s-0.8-1.7-1.5-2.4
		c-0.6-0.7-1.4-1.2-2.2-1.7c-0.9-0.4-1.9-0.6-2.9-0.6c-1.1,0-2.1,0.2-3.1,0.6c-0.9,0.4-1.7,0.9-2.4,1.6c-0.7,0.7-1.2,1.5-1.6,2.4
		c-0.4,0.9-0.6,1.9-0.6,3H266.7z"/>
	<path d="M278.5,58.5h6v5.6h0.1c0.2-0.8,0.6-1.5,1.1-2.3c0.5-0.7,1.2-1.4,2-2c0.8-0.6,1.6-1.1,2.5-1.5c0.9-0.4,1.9-0.6,2.9-0.6
		c0.7,0,1.3,0,1.5,0.1s0.6,0.1,0.9,0.1V64c-0.4-0.1-0.9-0.1-1.4-0.2c-0.5-0.1-0.9-0.1-1.4-0.1c-1.1,0-2.1,0.2-3.1,0.6
		c-1,0.4-1.8,1.1-2.5,1.9c-0.7,0.8-1.3,1.9-1.7,3.1c-0.4,1.2-0.6,2.7-0.6,4.3v13.8h-6.4V58.5z"/>
</g>
</svg>
